<?xml version="1.0" encoding="utf-8"?>
<!-- Generator: Adobe Illustrator 24.2.0, SVG Export Plug-In . SVG Version: 6.00 Build 0)  -->
<svg version="1.1" id="Capa_1" xmlns="http://www.w3.org/2000/svg" xmlns:xlink="http://www.w3.org/1999/xlink" x="0px" y="0px"
	 viewBox="0 0 300 300" style="enable-background:new 0 0 300 300;" xml:space="preserve">
<style type="text/css">
	.st0{fill:none;stroke:#FFFFFF;stroke-width:8;stroke-miterlimit:10;}
</style>
<g>
	<g>
		<path class="st0" d="M73.82,274.35h-24.6c-3.03,0-5.49-2.46-5.49-5.49V186.6c0-2.86,2.32-5.18,5.18-5.18h25.61
			c2.44,0,4.42,1.98,4.42,4.42v83.38C78.93,272.06,76.64,274.35,73.82,274.35z"/>
		<path class="st0" d="M130.74,274.29h-24.6c-3.03,0-5.49-2.46-5.49-5.49V130.43c0-2.86,2.32-5.18,5.18-5.18h25.61
			c2.44,0,4.42,1.98,4.42,4.42v139.5C135.85,272,133.56,274.29,130.74,274.29z"/>
		<path class="st0" d="M246.01,274.23h-24.6c-3.03,0-5.49-2.46-5.49-5.49V101.44c0-2.86,2.32-5.18,5.18-5.18h25.61
			c2.44,0,4.42,1.98,4.42,4.42v168.43C251.13,271.94,248.84,274.23,246.01,274.23z"/>
		<path class="st0" d="M188.94,274.23h-24.6c-3.03,0-5.49-2.46-5.49-5.49V155.82c0-2.86,2.32-5.18,5.18-5.18h25.61
			c2.44,0,4.42,1.98,4.42,4.42v114.05C194.05,271.94,191.76,274.23,188.94,274.23z"/>
	</g>
	<circle class="st0" cx="61.12" cy="120.94" r="19.64"/>
	<circle class="st0" cx="119.26" cy="58.33" r="19.64"/>
	<circle class="st0" cx="176.45" cy="91.75" r="19.64"/>
	<circle class="st0" cx="234.62" cy="42.27" r="19.64"/>
	<line class="st0" x1="74.45" y1="106.52" x2="105.28" y2="72.11"/>
	<line class="st0" x1="135.85" y1="68.84" x2="158.85" y2="83.04"/>
	<line class="st0" x1="191.53" y1="79.17" x2="219.57" y2="54.88"/>
</g>
<g>
</g>
<g>
</g>
<g>
</g>
<g>
</g>
<g>
</g>
<g>
</g>
</svg>
