<?xml version="1.0" encoding="utf-8"?>
<!-- Generator: Adobe Illustrator 24.2.0, SVG Export Plug-In . SVG Version: 6.00 Build 0)  -->
<svg version="1.1" id="Capa_1" xmlns="http://www.w3.org/2000/svg" xmlns:xlink="http://www.w3.org/1999/xlink" x="0px" y="0px"
	 viewBox="0 0 300 300" style="enable-background:new 0 0 300 300;" xml:space="preserve">
<style type="text/css">
	.st0{fill:none;stroke:#FFFFFF;stroke-width:7;stroke-miterlimit:10;}
	.st1{fill:#FFFFFF;}
</style>
<g>
	<path class="st0" d="M28.49,111.73H11.88v153.28h276.59V111.73h-19.54"/>
	<path class="st1" d="M153.45,17.19c0,0.07,0,3.47-0.01,3.54c-0.1,1.8-1.6,3.24-3.43,3.24c-1.84,0-3.35-1.45-3.43-3.28
		c0-0.05,0-3.45,0-3.5c0-1.89,1.54-3.43,3.43-3.43S153.45,15.3,153.45,17.19z"/>
	<path class="st1" d="M87.19,29.51c0.05,0.05,2.45,2.46,2.5,2.51c1.2,1.35,1.16,3.42-0.14,4.71c-1.3,1.3-3.39,1.33-4.74,0.1
		c-0.04-0.03-2.44-2.44-2.47-2.47c-1.34-1.34-1.34-3.51,0.01-4.85C83.68,28.16,85.85,28.17,87.19,29.51z"/>
	<path class="st1" d="M212.43,28.99c-0.04,0.05-2.3,2.6-2.34,2.65c-1.12,1.42-0.95,3.48,0.42,4.69c1.38,1.22,3.47,1.13,4.74-0.18
		c0.04-0.04,2.29-2.58,2.32-2.62c1.26-1.42,1.12-3.59-0.29-4.84S213.68,27.57,212.43,28.99z"/>
	<path class="st1" d="M153.45,42c0,0.07,0,13.5-0.01,13.57c-0.1,1.8-1.6,3.24-3.43,3.24c-1.84,0-3.35-1.45-3.43-3.28
		c0-0.05,0-13.48,0-13.53c0-1.89,1.54-3.43,3.43-3.43S153.45,40.11,153.45,42z"/>
	<path class="st1" d="M103.79,45.86c0.05,0.05,9.56,9.53,9.61,9.58c1.21,1.34,1.17,3.41-0.13,4.71c-1.3,1.31-3.39,1.35-4.74,0.12
		c-0.04-0.03-9.55-9.51-9.59-9.54c-1.34-1.34-1.35-3.51-0.01-4.85S102.44,44.53,103.79,45.86z"/>
	<path class="st1" d="M200.88,50.86c-0.05,0.05-9.74,9.35-9.79,9.39c-1.37,1.18-3.44,1.09-4.71-0.23c-1.28-1.33-1.27-3.42-0.01-4.74
		c0.04-0.04,9.72-9.34,9.76-9.37c1.37-1.31,3.54-1.27,4.85,0.1C202.29,47.37,202.24,49.55,200.88,50.86z"/>
	<path class="st1" d="M223.97,111.17c-19.43,3.02-44.36,13.28-44.68,13.36c-0.38,0.1-2.79,1.26-4.26-2.18
		c-0.56-1.29,0.21-2.76,0.88-3.56c0.22-0.26,1.16-0.83,1.47-0.96c8.22-3.54,24.86-9.08,44.96-13.21c1.93-0.4,3.89,0.31,4.47,2.24
		C227.4,108.84,226,110.86,223.97,111.17z"/>
	<path class="st1" d="M223.82,141.57c-19.43,3.02-44.36,13.28-44.68,13.36c-0.38,0.1-2.79,1.26-4.26-2.18
		c-0.56-1.29,0.21-2.76,0.88-3.56c0.22-0.26,1.16-0.83,1.47-0.96c8.22-3.54,24.86-9.08,44.96-13.21c1.93-0.4,3.89,0.31,4.47,2.24
		C227.25,139.24,225.85,141.26,223.82,141.57z"/>
	<path class="st1" d="M223.89,171.98c-19.43,3.02-44.36,13.28-44.68,13.36c-0.38,0.1-2.79,1.26-4.26-2.18
		c-0.56-1.29,0.21-2.76,0.88-3.56c0.22-0.26,1.16-0.83,1.47-0.96c8.22-3.54,24.86-9.08,44.96-13.21c1.93-0.4,3.89,0.31,4.47,2.24
		C227.32,169.64,225.92,171.66,223.89,171.98z"/>
	<path class="st1" d="M223.82,202.38c-19.43,3.02-44.36,13.28-44.68,13.36c-0.38,0.1-2.79,1.26-4.26-2.18
		c-0.56-1.29,0.21-2.76,0.88-3.56c0.22-0.26,1.16-0.83,1.47-0.96c8.22-3.54,24.86-9.08,44.96-13.21c1.93-0.4,3.89,0.31,4.47,2.24
		C227.25,200.05,225.85,202.07,223.82,202.38z"/>
	<path class="st1" d="M75.62,203.5c19.43,3.02,44.36,13.28,44.68,13.36c0.38,0.1,2.79,1.26,4.26-2.18c0.56-1.29-0.21-2.76-0.88-3.56
		c-0.22-0.26-1.16-0.83-1.47-0.96c-8.22-3.54-24.86-9.08-44.96-13.21c-1.93-0.4-3.89,0.31-4.47,2.24
		C72.19,201.16,73.59,203.18,75.62,203.5z"/>
	<path class="st1" d="M75.62,172.68c19.43,3.02,44.36,13.28,44.68,13.36c0.38,0.1,2.79,1.26,4.26-2.18
		c0.56-1.29-0.21-2.76-0.88-3.56c-0.22-0.26-1.16-0.83-1.47-0.96c-8.22-3.54-24.86-9.08-44.96-13.21c-1.93-0.4-3.89,0.31-4.47,2.24
		C72.19,170.35,73.59,172.37,75.62,172.68z"/>
	<path class="st1" d="M75.62,141.87c19.43,3.02,44.36,13.28,44.68,13.36c0.38,0.1,2.79,1.26,4.26-2.18
		c0.56-1.29-0.21-2.76-0.88-3.56c-0.22-0.26-1.16-0.83-1.47-0.96c-8.22-3.54-24.86-9.08-44.96-13.21c-1.93-0.4-3.89,0.31-4.47,2.24
		C72.19,139.53,73.59,141.55,75.62,141.87z"/>
	<path class="st1" d="M76.31,111.46c19.43,3.02,44.36,13.28,44.68,13.36c0.38,0.1,2.79,1.26,4.26-2.18
		c0.56-1.29-0.21-2.76-0.88-3.56c-0.22-0.26-1.16-0.83-1.47-0.96c-8.22-3.54-24.86-9.08-44.96-13.21c-1.93-0.4-3.89,0.31-4.47,2.24
		C72.88,109.12,74.28,111.14,76.31,111.46z"/>
	<path class="st1" d="M75.62,111.46c19.43,3.02,44.36,13.28,44.68,13.36c0.38,0.1,2.79,1.26,4.26-2.18
		c0.56-1.29-0.21-2.76-0.88-3.56c-0.22-0.26-1.16-0.83-1.47-0.96c-8.22-3.54-24.86-9.08-44.96-13.21c-1.93-0.4-3.89,0.31-4.47,2.24
		C72.19,109.12,73.59,111.14,75.62,111.46z"/>
	<g>
		<path class="st0" d="M152.25,104.28c0,0,49.77-35.47,101.29-29.98v156.24c0,0-67.45,7.6-101.29,31.25V104.28z"/>
		<path class="st0" d="M144.35,103.81c0,0-49.77-35.47-101.29-29.98v156.24c0,0,67.45,7.6,101.29,31.25V103.81z"/>
	</g>
	<path class="st0" d="M152.25,257.43c0,2.53-0.01,1.71-0.01,4.24c28.5-14.33,60.75-16.31,92.45-15.25
		c8.84,0.29,22.66,1.85,26.41,2.3c0.67-0.21-8.22-0.91,0,0c0.37-52.34-1.86-105.83-0.69-157.68c-0.47,0.07-0.47,0.09-0.47,0.09
		c0.47-0.08,0,0,0.47-0.09c-4.01,0.35-14.75,3.52-14.75,3.52"/>
	<path class="st0" d="M45.04,94.2c-6.01-1.05-12.02-2.11-18.04-3.16c-0.02,5.23-0.05,10.45-0.07,15.68
		c-1.72,47.31-0.61,95.22-0.62,142c22.61-2.18,0-0.06,0,0c40.13-4.43,82.47,0.03,118.87,16.3"/>
</g>
<g>
</g>
<g>
</g>
<g>
</g>
<g>
</g>
<g>
</g>
<g>
</g>
</svg>
