<svg id="Capa_1" data-name="Capa 1" xmlns="http://www.w3.org/2000/svg" viewBox="0 0 212.88 197.55"><defs><style>.cls-1{fill:#fff;}</style></defs><path class="cls-1" d="M64.36,73.45l93.57,9.7c7.52.78,13.19,6.63,13.19,13.6V179c0,7.15-6,13.1-13.72,13.64L98,196.82,87.85,219.89,75,198.44l-11.12.78c-8.62.6-16-5.68-16-13.65V87C47.85,78.88,55.56,72.53,64.36,73.45Zm-9,87.25v16.58c0,6.51,6,11.64,13,11.14l9.09-.63,10.54,17.53,8.29-18.85,50.92-3.41c6.32-.44,14.77-5.3,14.77-11.15V104.7c0-5.69-8.2-12.85-14.34-13.49L68.9,83.28c-7.19-.75-13.49,6.82-13.49,13.49Z" transform="translate(-47.85 -22.34)"/><path class="cls-1" d="M118.06,37.05l126-14.6c8.86-1,16.7,5.33,16.7,13.56V150c0,8-7.43,14.29-16.09,13.63l-11-.86-13.29,22.78-13-24.81-88.64-6.85c-7.69-.6-13.6-6.52-13.6-13.63V50.62C105.07,43.73,110.63,37.92,118.06,37.05Zm-3.82,97.42c0,6.38,5.31,10.52,12.22,11.05l82,6.16,12,19.27,11.62-17.45,9.91.77c7.78.6,10.89-3.87,10.89-11.05V40.81c0-7.4-3.48-10.74-11.44-9.81L125.91,44.12c-6.67.77-11.67,3.62-11.67,9.81Z" transform="translate(-47.85 -22.34)"/></svg>