<svg id="Capa_1" data-name="Capa 1" xmlns="http://www.w3.org/2000/svg" viewBox="0 0 264.45 190.5"><defs><style>.cls-1{fill:#fff;}.cls-1,.cls-2,.cls-3{stroke:#fff;stroke-miterlimit:10;}.cls-2,.cls-3{fill:none;}.cls-2{stroke-width:14px;}.cls-3{stroke-width:11px;}</style></defs><path class="cls-1" d="M151.49,47.15c-27.43,0-49.67,21.2-49.67,47.35s22.24,47.34,49.67,47.34,49.66-21.2,49.66-47.34S178.92,47.15,151.49,47.15Zm-.48,84.9c-21.29,0-38.54-16.45-38.54-36.74S129.72,58.57,151,58.57,189.55,75,189.55,95.31,172.3,132.05,151,132.05Z" transform="translate(-18.96 -46.65)"/><path class="cls-2" d="M110.39,148.93l-38,21.53v38.36s3.58,15.86,23,21.34h57.24" transform="translate(-18.96 -46.65)"/><circle class="cls-1" cx="90.47" cy="102.74" r="7.08"/><path class="cls-2" d="M194.45,148.93l38,21.53v38.36s-3.58,15.86-23,21.34H152.15" transform="translate(-18.96 -46.65)"/><ellipse class="cls-1" cx="174.55" cy="101.72" rx="7.05" ry="7.14"/><path class="cls-1" d="M215.93,59a39.35,39.35,0,0,0-31,14.79c2.36,2.09,4.53,3.77,5.9,6.5a30.46,30.46,0,0,1,24.74-12.39c16.6,0,30.06,12.83,30.06,28.66s-13.46,28.65-30.06,28.65a30.28,30.28,0,0,1-26.39-14.93c-1.31,2.56-2.65,5.37-5.41,6.2a39.2,39.2,0,0,0,32.17,16.36c21.39,0,38.73-16.53,38.73-36.92S237.32,59,215.93,59Z" transform="translate(-18.96 -46.65)"/><path class="cls-3" d="M247.86,137.21C257.65,142,267.65,149,277.65,154c0,10,1,23.37-1,30-6.58,21.58-31,17-49,16.62" transform="translate(-18.96 -46.65)"/><ellipse class="cls-1" cx="228.57" cy="90.23" rx="5.5" ry="5.57"/><path class="cls-1" d="M86.44,58.57a39.33,39.33,0,0,1,31,14.8c-2.36,2.09-4.54,3.76-5.9,6.49A30.45,30.45,0,0,0,86.81,67.48c-16.6,0-30.06,12.83-30.06,28.65s13.46,28.65,30.06,28.65a30.29,30.29,0,0,0,26.39-14.93c1.31,2.56,2.65,5.37,5.41,6.21a39.24,39.24,0,0,1-32.17,16.36c-21.39,0-38.74-16.53-38.74-36.92S65.05,58.57,86.44,58.57Z" transform="translate(-18.96 -46.65)"/><path class="cls-3" d="M54.5,136.75c-9.78,4.79-19.78,11.79-29.78,16.79,0,10-1,23.37,1,30,6.58,21.58,31,17,49,16.61" transform="translate(-18.96 -46.65)"/><ellipse class="cls-1" cx="35.88" cy="89.77" rx="5.5" ry="5.57"/></svg>